<?xml version="1.0" encoding="UTF-8"?>
<svg id="Layer_1" xmlns="http://www.w3.org/2000/svg" version="1.1" viewBox="0 0 216 230.99">
  <!-- Generator: Adobe Illustrator 29.0.1, SVG Export Plug-In . SVG Version: 2.1.0 Build 192)  -->
  <defs>
    <style>
      .st0 {
        fill: #4c8983;
      }

      .st1 {
        fill: #4a6864;
        font-family: AdelleSansDevanagari-Heavy, 'Adelle Sans Devanagari';
        font-weight: 800;
      }

      .st2 {
        letter-spacing: .05em;
      }

      .st2, .st3 {
        font-size: 32px;
      }

      .st3 {
        letter-spacing: .05em;
      }

      .st4 {
        font-size: 25px;
        letter-spacing: .05em;
      }
    </style>
  </defs>
  <g>
    <path class="st0" d="M25,172.65c-7.02,1.97-13.09-3.12-11.62-10.01.48-2.17,2.08-3.53,3.68-4.96,13.18-11.73,29.13-21.9,42.47-33.63,3.73-2.71,8.41-2.26,11.96.53,13,11.57,29.04,21.53,41.87,33.06,1.17,1.07,2.64,2.38,3.25,3.86,2.77,6.77-3.64,13.37-10.97,11.24l-.61.49v12.88c2.69-1.07,5.5-3.32,7.71-5.17,14.04-11.73,26.26-34.66,10.71-49.71-5.68,1.07-11.27-.25-13.65-5.58-.95-2.17-1.04-4.47-1.95-6.64-5.76,1.03-16.38,6.64-21.15,1.19-5.46-6.23,5.94-15.71,10.84-18.95,27.17-17.96,62.67-9.23,83.65,13,23.75,25.18,28.26,56.72,26.61,89.41-.13,2.99-.13,12.88-1.69,14.93-.74.98-2.56,1.31-3.81,1.39H30.07c-1.78.21-5.07-.9-5.07-2.91v-44.42ZM105.05,194.01v19.23l.61.57h94.66l.61-.94c3.38-36.01-1.47-79.24-33.94-102.82-3.38-2.46-4.07-3.45-8.41-1.44-6.11,2.83-2.43,6.52-5.2,10.09-3.73,4.72-11.92,2.83-17.16,2.5l-5.94,7.83c18.25,23.05-2.82,52.91-25.22,65.04v-.08ZM98.55,213.82v-45.56l-33.46-26.29-33.59,26.29v44.99l.61.57h13.22v-38.63c0-1.35,1.99-2.75,3.42-2.91,10.14-1.11,22.54.86,32.94,0,.74-.25,3.03,1.39,3.03,1.72v39.21l.61.57h13.22v.04ZM78.22,178.43h-26.39v34.78l.61.57h25.79v-35.35Z"/>
    <path class="st0" d="M154.4,150.23c4.16-.82,4.42,4.68,4.59,7.42.91,14.89-6.2,28.87-17.9,38.47-1.95,1.6-8.49,6.36-10.79,6.36-2.9,0-4.38-2.62-2.64-4.84.82-1.03,4.64-2.83,6.07-3.86,13.09-9.47,19.29-20.67,18.72-36.5-.09-2.3-2.04-6.27,1.91-7.01l.04-.04Z"/>
    <path class="st0" d="M173.47,187.72c-2.04,1.76-5.29.37-5.55-2.01-.13-1.39,1.91-6.89,2.3-8.94,2.25-11.77.74-24.07-2.43-35.52-.74-2.67-4.94-9.97.74-10.29,3.12-.16,4.42,5.17,5.16,7.38,3.73,11.4,5.07,24.32,3.51,36.17-.3,2.3-2.25,11.89-3.73,13.21Z"/>
    <path class="st0" d="M164.54,194.07c1.95-.37,4.29,1.31,4.16,3.16-.13,2.13-9.01,12.26-11.18,13.7-3.42,2.26-7.19-.62-5.24-3.81,1-1.68,5.37-5.17,7.06-7.14,1.3-1.52,3.29-5.5,5.2-5.91Z"/>
  </g>
  <text class="st1" transform="translate(16.06 40.13)"><tspan class="st2"><tspan x="0" y="0">Montpelier </tspan></tspan><tspan class="st3"><tspan x="0" y="37">Flood Alert</tspan></tspan><tspan class="st4"><tspan x="0" y="71">2024</tspan></tspan></text>
</svg>